<svg width="4137" height="4138" viewBox="0 0 4137 4138" fill="none" xmlns="http://www.w3.org/2000/svg">
<path d="M1447.53 95.5449C1933.54 -57.5079 2458.93 -25.837 2923.04 184.488C3387.14 394.814 3757.31 769.001 3962.62 1235.35C4059.36 1455.1 4116.29 1688.03 4132.89 1923.6C4088.25 1906.79 4037.92 1902.02 3986.2 1912.54L3985.13 1912.76L3984.05 1912.99L3507.05 2016.72C3479.28 1246.71 2846.3 631.001 2069.51 631.001C1275.04 631.001 631.006 1275.04 631.006 2069.5C631.006 2863.96 1275.04 3508 2069.51 3508C2538.67 3508 2955.38 3283.39 3217.97 2935.84L3218.49 3357.62L3134.05 3375.06L3133.95 3375.08C3008.09 3401.15 2895.17 3450.72 2812.7 3535.19C2726.96 3623 2688 3734.39 2688 3853.87C2688 3917.01 2700.21 3977.16 2723.46 4031.77C2569.99 4082.95 2409.95 4116.31 2246.38 4130.38C1738.72 4174.07 1232.79 4028.88 825.539 3722.65C418.29 3416.42 138.364 2970.68 39.4023 2470.84C-59.5596 1971 29.4027 1452.23 289.241 1013.92C549.08 575.61 961.519 248.598 1447.53 95.5449ZM3166.81 3533.71C3165.98 3533.88 3165.15 3534.06 3164.32 3534.23L3166.81 3533.71L3329.96 3500.02L3166.81 3533.71Z" fill="white"/>
<path d="M2239.46 921.001C2614.75 975.305 2931.98 1215.7 3093.03 1544.01L2413.54 1796.8C2362.75 1728.5 2292.28 1676.69 2210.74 1649.85L2239.46 921.001ZM3201.61 1873.55C3211.45 1934.1 3218.01 1997.86 3218.01 2062.32C3218.01 2383.23 3085.49 2674.63 2874.63 2884.53L2425.59 2310.65C2475.23 2242.44 2499.96 2161.12 2504.47 2070.53L3201.61 1873.55ZM2596.41 3087.19C2438.54 3170.03 2258.43 3218 2069.82 3218C1877.3 3218 1697.18 3170.03 1539.94 3087.19L1943.95 2480.5C1982.42 2492.36 2025.5 2499.58 2069.82 2499.58C2112.89 2499.58 2153.31 2492.36 2195.68 2480.5L2596.41 3087.19ZM1261.11 2884.53C1050.24 2674.63 921.006 2383.23 921.006 2062.32C921.006 1997.86 924.285 1934.1 937.404 1873.55L1635.16 2070.53C1636.39 2161.12 1663.78 2242.44 1710.14 2310.65L1261.11 2884.53ZM1042.7 1544.01C1204.99 1215.7 1522.22 975.305 1896.89 921.001L1925.61 1649.85C1844.07 1676.69 1772.98 1728.5 1723.43 1796.8L1042.7 1544.01ZM2069.82 2253.67C1963.01 2253.67 1878.98 2167.8 1878.98 2062.32C1878.98 1954.88 1963.01 1870.35 2069.82 1870.35C2174.67 1870.35 2258.69 1954.88 2258.69 2062.32C2258.69 2167.8 2174.67 2253.67 2069.82 2253.67Z" fill="white"/>
<path d="M4137.01 2546.07V2168.12C4137.01 2101.99 4082.44 2058.29 4018.48 2071.29L3494.73 2185.18C3420.16 2201.27 3379.19 2243.41 3379.19 2308.72L3380.58 3425.74C3384.35 3467.24 3365.87 3492.53 3329.96 3500.02L3166.81 3533.71C2954.02 3577.79 2850.01 3688.64 2850.01 3853.87C2850.01 4021.76 2978.04 4138 3159.89 4138C3339.58 4138 3554.26 4003.38 3554.26 3718.46V2791C3554.26 2746.41 3557.31 2742.36 3598.19 2733.21L4067.05 2631.13C4109.91 2622.12 4137.01 2588.44 4137.01 2546.07Z" fill="white"/>
</svg>
