<svg width="717" height="692" viewBox="0 0 717 692" fill="none" xmlns="http://www.w3.org/2000/svg">
<path d="M716.397 438.267V378.162C716.397 367.645 707.723 360.695 697.554 362.763L614.291 380.875C602.437 383.434 595.924 390.135 595.924 400.521L596.144 578.161C596.745 584.762 593.806 588.782 588.098 589.974L562.16 595.332C528.333 602.341 511.797 619.971 511.797 646.247C511.797 672.946 532.15 691.432 561.061 691.432C589.626 691.432 623.756 670.024 623.756 624.713V477.218C623.756 470.127 624.24 469.483 630.74 468.029L705.276 451.795C712.089 450.362 716.397 445.005 716.397 438.267Z" fill="white"/>
<path d="M337.246 0.928345C523.357 0.928356 674.298 151.865 674.298 337.87C674.298 523.875 523.357 674.809 337.246 674.809C151.237 674.809 0.297363 523.875 0.297363 337.87C0.297365 151.865 151.237 0.928345 337.246 0.928345ZM597.067 355.303C584.314 357.953 577.307 364.893 577.307 375.649L577.543 559.621C578.19 566.457 575.028 570.621 568.887 571.855L540.982 577.404C504.589 584.663 486.798 602.922 486.798 630.134C486.798 633.361 487.096 636.471 487.672 639.449C597.95 584.349 673.81 470.579 674.293 339.132L597.067 355.303ZM337.246 106.454C209.463 106.454 106.031 209.885 106.031 337.767C106.031 465.547 209.463 568.978 337.246 568.978C465.131 568.978 568.564 465.547 568.564 337.767C568.564 209.885 465.131 106.454 337.246 106.454ZM425.042 506.569C398.989 520.213 369.145 528.114 337.246 528.114C305.993 528.114 276.149 520.213 249.993 506.569L316.391 406.643C323.411 408.596 330.108 409.787 337.246 409.787C344.589 409.787 351.727 408.596 358.101 406.643L425.042 506.569ZM265.226 339.118C265.974 354.039 270.072 367.432 278.296 378.668L203.894 473.188C168.954 438.617 146.998 390.623 146.998 337.767C146.998 327.149 148.085 316.647 149.715 306.675L265.226 339.118ZM524.879 306.675C527.053 316.647 527.597 327.149 527.597 337.767C527.597 390.623 506.183 438.617 471.244 473.188L396.841 378.668C404.522 367.432 409.061 354.039 409.266 339.118L524.879 306.675ZM337.246 306.148C354.942 306.148 368.865 320.071 368.865 337.767C368.865 355.141 354.942 369.284 337.246 369.284C319.872 369.284 305.949 355.141 305.949 337.767C305.949 320.071 319.872 306.148 337.246 306.148ZM313.895 269.831C300.384 274.251 288.708 282.783 280.292 294.033L167.706 252.397C194.391 198.323 246.954 158.729 309.137 149.785L313.895 269.831ZM365.898 149.785C427.978 158.729 480.541 198.323 507.432 252.397L394.639 294.033C386.429 282.783 374.651 274.251 361.14 269.831L365.898 149.785Z" fill="white"/>
</svg>
